<svg width="198" height="58" viewBox="0 0 198 58" fill="none" xmlns="http://www.w3.org/2000/svg">
<path d="M11.44 39.4C9.94667 39.4 8.4 39.0933 6.8 38.48V47.52H3.52V19.2H6.64V22C7.86667 20.8267 8.98667 20 10 19.52C11.0133 19.04 12.0533 18.8 13.12 18.8C15.2267 18.8 16.84 19.6 17.96 21.2C19.1067 22.8 19.68 25.0533 19.68 27.96V30.28C19.68 33.0533 18.9733 35.2667 17.56 36.92C16.1733 38.5733 14.1333 39.4 11.44 39.4ZM12.32 21.88C11.5467 21.88 10.7467 22.08 9.92 22.48C9.09333 22.88 8.05333 23.6933 6.8 24.92V35.48C7.57333 35.8267 8.32 36.08 9.04 36.24C9.76 36.3733 10.4667 36.44 11.16 36.44C12.9733 36.44 14.28 35.8933 15.08 34.8C15.88 33.68 16.28 32.1733 16.28 30.28V27.96C16.28 25.88 15.9467 24.3467 15.28 23.36C14.64 22.3733 13.6533 21.88 12.32 21.88ZM40.2266 39.2C38.9999 39.2 38.0132 38.92 37.2666 38.36C36.5466 37.8 36.0399 37.1067 35.7466 36.28C34.4399 37.4267 33.2532 38.24 32.1866 38.72C31.1199 39.1733 30.0532 39.4 28.9866 39.4C27.2532 39.4 25.9732 38.84 25.1466 37.72C24.3199 36.6 23.9066 35.2267 23.9066 33.6C23.9066 32.5067 24.1066 31.5333 24.5066 30.68C24.9066 29.8267 25.5866 29.16 26.5466 28.68C27.5066 28.1733 28.7999 27.92 30.4266 27.92C31.1466 27.92 31.9332 27.9733 32.7866 28.08C33.6399 28.16 34.5066 28.2667 35.3866 28.4V25.72C35.3866 24.2267 35.0532 23.2133 34.3866 22.68C33.7466 22.12 32.7999 21.84 31.5466 21.84C29.8399 21.84 27.9332 22.3067 25.8266 23.24L24.7866 20.52C26.0132 19.96 27.1866 19.5333 28.3066 19.24C29.4266 18.9467 30.5599 18.8 31.7066 18.8C33.5732 18.8 34.9999 19.1067 35.9866 19.72C36.9732 20.3333 37.6532 21.1467 38.0266 22.16C38.3999 23.1733 38.5866 24.28 38.5866 25.48V34.04C38.5866 34.6533 38.7066 35.1733 38.9466 35.6C39.1866 36 39.6666 36.2 40.3866 36.2H40.8266V39.2H40.2266ZM27.1466 33.56C27.1466 34.4667 27.3599 35.2 27.7866 35.76C28.2132 36.32 28.8266 36.6 29.6266 36.6C30.3199 36.6 31.1199 36.4 32.0266 36C32.9332 35.5733 34.0532 34.7333 35.3866 33.48V30.96C33.5732 30.6667 31.9732 30.52 30.5866 30.52C29.3599 30.52 28.4799 30.7733 27.9466 31.28C27.4132 31.7867 27.1466 32.5467 27.1466 33.56ZM53.3931 39.4C51.8998 39.4 50.3531 39.0933 48.7531 38.48V47.52H45.4731V19.2H48.5931V22C49.8198 20.8267 50.9398 20 51.9531 19.52C52.9665 19.04 54.0065 18.8 55.0731 18.8C57.1798 18.8 58.7931 19.6 59.9131 21.2C61.0598 22.8 61.6331 25.0533 61.6331 27.96V30.28C61.6331 33.0533 60.9265 35.2667 59.5131 36.92C58.1265 38.5733 56.0865 39.4 53.3931 39.4ZM54.2731 21.88C53.4998 21.88 52.6998 22.08 51.8731 22.48C51.0465 22.88 50.0065 23.6933 48.7531 24.92V35.48C49.5265 35.8267 50.2731 36.08 50.9931 36.24C51.7131 36.3733 52.4198 36.44 53.1131 36.44C54.9265 36.44 56.2331 35.8933 57.0331 34.8C57.8331 33.68 58.2331 32.1733 58.2331 30.28V27.96C58.2331 25.88 57.8998 24.3467 57.2331 23.36C56.5931 22.3733 55.6065 21.88 54.2731 21.88ZM71.1797 14.36H67.4997V10.68H71.1797V14.36ZM70.9797 39H67.6997V19.2H70.9797V39ZM88.4513 22.08C87.2513 22.08 86.0779 22.2933 84.9313 22.72C83.8113 23.1467 82.6113 23.96 81.3313 25.16V39H78.0513V19.2H81.1713V22.4C82.5313 21.0667 83.7713 20.1333 84.8913 19.6C86.0379 19.0667 87.2246 18.8 88.4513 18.8V22.08ZM107.099 37.84C105.899 38.4267 104.699 38.8267 103.499 39.04C102.299 39.28 101.192 39.4 100.179 39.4C97.3254 39.4 95.1921 38.5867 93.7788 36.96C92.3921 35.3333 91.6988 33.1067 91.6988 30.28V27.88C91.6988 25.1333 92.3921 22.9333 93.7788 21.28C95.1921 19.6267 97.1788 18.8 99.7388 18.8C101.099 18.8 102.339 19.08 103.459 19.64C104.605 20.1733 105.512 21 106.179 22.12C106.872 23.2133 107.219 24.6267 107.219 26.36C107.219 27.48 107.059 28.76 106.739 30.2H94.9388V30.28C94.9388 32.3067 95.3521 33.84 96.1788 34.88C97.0321 35.92 98.3921 36.44 100.259 36.44C101.112 36.44 102.045 36.3333 103.059 36.12C104.099 35.9067 105.112 35.5733 106.099 35.12L107.099 37.84ZM99.7388 21.68C98.1921 21.68 97.0188 22.1867 96.2188 23.2C95.4454 24.1867 95.0188 25.5867 94.9388 27.4H103.899C103.979 26.92 104.019 26.4667 104.019 26.04C104.019 24.5467 103.592 23.4533 102.739 22.76C101.912 22.04 100.912 21.68 99.7388 21.68ZM116.375 14.36H112.695V10.68H116.375V14.36ZM116.175 39H112.895V19.2H116.175V39ZM138.927 27.88V30.28C138.927 33.1067 138.193 35.3333 136.727 36.96C135.287 38.5867 133.22 39.4 130.527 39.4C127.86 39.4 125.793 38.5867 124.327 36.96C122.86 35.3333 122.127 33.1067 122.127 30.28V27.88C122.127 25.1067 122.847 22.9067 124.287 21.28C125.753 19.6267 127.833 18.8 130.527 18.8C133.22 18.8 135.287 19.6267 136.727 21.28C138.193 22.9067 138.927 25.1067 138.927 27.88ZM135.527 27.88C135.527 25.9867 135.1 24.5067 134.247 23.44C133.393 22.3467 132.153 21.8 130.527 21.8C128.927 21.8 127.687 22.3467 126.807 23.44C125.953 24.5067 125.527 25.9867 125.527 27.88V30.28C125.527 32.2533 125.953 33.7733 126.807 34.84C127.687 35.9067 128.927 36.44 130.527 36.44C132.153 36.44 133.393 35.9067 134.247 34.84C135.1 33.7733 135.527 32.2533 135.527 30.28V27.88Z" fill="#2A2F45"/>
<path d="M150.5 16.4375H157.625V45.935C157.624 46.5404 157.777 47.1362 158.07 47.666C158.363 48.1958 158.786 48.6422 159.299 48.9631C160.404 49.6875 160.926 50.875 162.767 50.875C165.344 50.875 165.344 48.5 167.909 48.5C170.474 48.5 170.486 50.875 173.051 50.875C175.616 50.875 175.627 48.5 178.204 48.5C180.781 48.5 180.769 50.875 183.346 50.875C185.199 50.875 185.721 49.6875 186.826 48.9631C187.339 48.6422 187.762 48.1958 188.055 47.666C188.348 47.1362 188.501 46.5404 188.5 45.935V14.0625C188.5 12.4878 187.874 10.9775 186.761 9.86405C185.647 8.75055 184.137 8.12499 182.562 8.12499H154.062C153.664 8.12128 153.265 8.1611 152.875 8.24374C151.534 8.5175 150.329 9.24621 149.463 10.3065C148.597 11.3669 148.125 12.6937 148.125 14.0625C148.125 14.6924 148.375 15.2965 148.821 15.7419C149.266 16.1873 149.87 16.4375 150.5 16.4375ZM182.562 10.5C183.507 10.5 184.413 10.8753 185.082 11.5434C185.75 12.2115 186.125 13.1177 186.125 14.0625V45.935C186.124 46.1379 186.071 46.3373 185.972 46.514C185.872 46.6907 185.728 46.8388 185.555 46.9444C185.112 47.2405 184.694 47.5743 184.308 47.9419C183.726 48.4762 183.667 48.5 183.346 48.5C183.026 48.5 182.966 48.5 182.384 47.9419C181.849 47.3785 181.204 46.9299 180.489 46.6234C179.775 46.3169 179.006 46.1588 178.228 46.1588C177.451 46.1588 176.681 46.3169 175.967 46.6234C175.252 46.9299 174.608 47.3785 174.072 47.9419C173.49 48.4762 173.431 48.5 173.11 48.5C172.789 48.5 172.742 48.5 172.16 47.9419C171.624 47.3785 170.98 46.9299 170.265 46.6234C169.551 46.3169 168.781 46.1588 168.004 46.1588C167.226 46.1588 166.457 46.3169 165.742 46.6234C165.028 46.9299 164.383 47.3785 163.847 47.9419C163.266 48.4762 163.206 48.5 162.886 48.5C162.565 48.5 162.517 48.5 161.936 47.9419C161.552 47.5715 161.134 47.2375 160.689 46.9444C160.515 46.8388 160.372 46.6907 160.272 46.514C160.172 46.3373 160.12 46.1379 160.119 45.935V14.0625C160.121 12.8307 159.849 11.6139 159.323 10.5H182.562ZM153.136 10.6187H153.386C153.607 10.5579 153.834 10.5181 154.062 10.5C155.005 10.4977 155.911 10.8692 156.58 11.5331C157.071 12.0337 157.409 12.664 157.554 13.35C157.59 13.5861 157.614 13.8239 157.625 14.0625H150.5C150.499 13.2784 150.757 12.5159 151.234 11.8932C151.71 11.2706 152.379 10.8226 153.136 10.6187Z" fill="#2A2F45"/>
<path d="M175.438 17.625H182.562C182.877 17.625 183.179 17.4999 183.402 17.2772C183.625 17.0545 183.75 16.7524 183.75 16.4375C183.75 16.1226 183.625 15.8205 183.402 15.5978C183.179 15.3751 182.877 15.25 182.562 15.25H175.438C175.123 15.25 174.821 15.3751 174.598 15.5978C174.375 15.8205 174.25 16.1226 174.25 16.4375C174.25 16.7524 174.375 17.0545 174.598 17.2772C174.821 17.4999 175.123 17.625 175.438 17.625Z" fill="#2A2F45"/>
<path d="M175.438 22.375H182.562C182.877 22.375 183.179 22.2499 183.402 22.0272C183.625 21.8045 183.75 21.5024 183.75 21.1875C183.75 20.8726 183.625 20.5705 183.402 20.3478C183.179 20.1251 182.877 20 182.562 20H175.438C175.123 20 174.821 20.1251 174.598 20.3478C174.375 20.5705 174.25 20.8726 174.25 21.1875C174.25 21.5024 174.375 21.8045 174.598 22.0272C174.821 22.2499 175.123 22.375 175.438 22.375Z" fill="#2A2F45"/>
<path d="M175.438 27.125H182.562C182.877 27.125 183.179 26.9999 183.402 26.7772C183.625 26.5545 183.75 26.2524 183.75 25.9375C183.75 25.6226 183.625 25.3205 183.402 25.0978C183.179 24.8751 182.877 24.75 182.562 24.75H175.438C175.123 24.75 174.821 24.8751 174.598 25.0978C174.375 25.3205 174.25 25.6226 174.25 25.9375C174.25 26.2524 174.375 26.5545 174.598 26.7772C174.821 26.9999 175.123 27.125 175.438 27.125Z" fill="#2A2F45"/>
<path d="M163.562 33.0625H182.562C182.877 33.0625 183.179 32.9374 183.402 32.7147C183.625 32.492 183.75 32.1899 183.75 31.875C183.75 31.5601 183.625 31.258 183.402 31.0353C183.179 30.8126 182.877 30.6875 182.562 30.6875H163.562C163.248 30.6875 162.946 30.8126 162.723 31.0353C162.5 31.258 162.375 31.5601 162.375 31.875C162.375 32.1899 162.5 32.492 162.723 32.7147C162.946 32.9374 163.248 33.0625 163.562 33.0625Z" fill="#2A2F45"/>
<path d="M163.562 37.8125H182.562C182.877 37.8125 183.179 37.6874 183.402 37.4647C183.625 37.242 183.75 36.9399 183.75 36.625C183.75 36.3101 183.625 36.008 183.402 35.7853C183.179 35.5626 182.877 35.4375 182.562 35.4375H163.562C163.248 35.4375 162.946 35.5626 162.723 35.7853C162.5 36.008 162.375 36.3101 162.375 36.625C162.375 36.9399 162.5 37.242 162.723 37.4647C162.946 37.6874 163.248 37.8125 163.562 37.8125Z" fill="#2A2F45"/>
<path d="M164.75 27.125H169.5C170.13 27.125 170.734 26.8748 171.179 26.4294C171.625 25.984 171.875 25.3799 171.875 24.75V17.625C171.875 16.9951 171.625 16.391 171.179 15.9456C170.734 15.5002 170.13 15.25 169.5 15.25H164.75C164.12 15.25 163.516 15.5002 163.071 15.9456C162.625 16.391 162.375 16.9951 162.375 17.625V24.75C162.375 25.3799 162.625 25.984 163.071 26.4294C163.516 26.8748 164.12 27.125 164.75 27.125ZM164.75 17.625H169.5V24.75H164.75V17.625Z" fill="#2A2F45"/>
</svg>
