<?xml version="1.0" standalone="no"?>
<!DOCTYPE svg PUBLIC "-//W3C//DTD SVG 20010904//EN"
 "http://www.w3.org/TR/2001/REC-SVG-20010904/DTD/svg10.dtd">
<svg version="1.0" xmlns="http://www.w3.org/2000/svg"
 width="512.000000pt" height="512.000000pt" viewBox="0 0 512.000000 512.000000"
 preserveAspectRatio="xMidYMid meet">
<metadata>
Created by potrace 1.14, written by Peter Selinger 2001-2017
</metadata>
<g transform="translate(0.000000,512.000000) scale(0.100000,-0.100000)"
fill="#000000" stroke="none">
<path d="M1444 5106 c-164 -40 -319 -162 -386 -306 -60 -126 -62 -144 -62
-590 l-1 -405 -150 -93 c-82 -52 -177 -111 -210 -131 l-60 -38 -140 89 c-77
48 -147 91 -155 95 -8 4 -40 24 -72 45 -31 21 -61 38 -67 38 -5 0 -11 4 -13
10 -2 5 -20 12 -40 15 -32 5 -42 2 -63 -21 l-26 -28 4 -925 c1 -509 6 -939 10
-955 54 -206 205 -359 412 -421 55 -17 119 -18 810 -19 l750 -1 5 -713 5 -713
23 -17 c13 -10 33 -19 46 -20 13 -1 119 57 270 148 l248 149 121 -75 c67 -41
129 -78 137 -84 68 -42 154 -92 199 -116 l54 -28 46 24 c25 14 138 80 251 149
113 68 210 124 215 124 6 0 72 -38 148 -84 75 -46 152 -93 171 -104 19 -11 61
-36 94 -56 84 -51 112 -56 148 -25 l29 24 0 756 0 756 31 0 c56 0 227 49 311
89 117 56 196 113 288 205 142 142 226 295 271 491 25 109 25 331 1 432 -47
198 -145 370 -286 506 -168 161 -346 245 -596 281 -19 3 -20 12 -21 542 l-1
539 -26 77 c-61 177 -188 305 -367 370 l-65 23 -1120 2 c-865 1 -1132 -1
-1171 -11z m236 -156 c97 -24 204 -107 253 -198 60 -110 57 -13 57 -1639 l0
-1493 -511 0 c-457 0 -509 2 -495 15 39 40 85 105 109 155 58 121 55 52 56
1485 1 1083 4 1329 15 1371 61 229 283 359 516 304z m2030 6 c131 -29 248
-132 306 -266 18 -42 19 -78 22 -586 2 -436 0 -541 -10 -541 -77 -1 -253 -50
-341 -94 -285 -143 -481 -392 -547 -696 -93 -427 104 -869 485 -1086 99 -56
228 -102 334 -119 l81 -12 0 -669 c0 -367 -3 -666 -7 -664 -5 2 -98 58 -209
125 -156 95 -206 120 -226 117 -15 -3 -102 -51 -195 -107 -92 -55 -200 -120
-240 -143 l-71 -43 -79 49 c-43 27 -85 52 -93 56 -8 4 -58 34 -110 66 -52 33
-124 75 -161 94 l-66 34 -69 -37 c-114 -61 -225 -125 -296 -171 -37 -24 -68
-43 -70 -43 -2 0 -3 982 -3 2182 1 1731 -2 2197 -12 2252 -15 83 -60 183 -111
245 -20 25 -40 48 -44 49 -5 2 -8 7 -8 10 0 10 1697 8 1740 -2z m-3531 -1349
c9 -8 81 -54 161 -103 80 -48 160 -99 179 -111 41 -28 76 -24 135 15 23 15 50
32 61 39 11 6 77 47 147 91 100 63 127 76 130 63 2 -9 3 -380 3 -826 -1 -728
-3 -816 -18 -866 -74 -247 -360 -369 -591 -252 -110 56 -201 177 -222 293 -8
46 -13 1670 -5 1670 3 0 12 -6 20 -13z m4037 -201 c341 -34 637 -291 731 -636
25 -92 25 -340 -1 -425 -78 -255 -229 -438 -454 -550 -194 -95 -420 -113 -625
-48 -509 160 -747 720 -510 1198 128 258 383 431 684 463 41 5 83 7 94 6 11
-1 47 -5 81 -8z"/>
<path d="M2374 4436 c-33 -28 -35 -79 -5 -110 17 -16 35 -21 88 -22 69 -2 98
7 120 35 18 24 15 66 -6 92 -17 21 -29 24 -95 26 -66 2 -79 0 -102 -21z"/>
<path d="M2885 4438 c-33 -26 -35 -86 -4 -114 20 -18 43 -19 465 -20 l444 -2
26 27 c21 21 25 32 20 60 -11 69 11 66 -481 67 -428 2 -446 1 -470 -18z"/>
<path d="M2998 3940 c-119 -6 -136 -14 -143 -68 -2 -24 3 -40 20 -60 l23 -27
437 0 c311 0 445 3 465 11 62 27 52 127 -14 139 -41 8 -650 11 -788 5z"/>
<path d="M2364 3913 c-20 -22 -24 -34 -20 -58 11 -52 36 -68 113 -70 80 -3
120 13 130 53 9 36 5 53 -20 80 -18 19 -30 22 -99 22 -73 0 -81 -2 -104 -27z"/>
<path d="M2391 3414 c-49 -20 -57 -79 -19 -124 17 -19 29 -20 362 -20 l345 0
20 26 c12 15 21 39 21 53 0 33 -33 71 -63 72 -157 7 -644 2 -666 -7z"/>
<path d="M2373 2886 c-35 -30 -34 -82 1 -113 27 -23 31 -23 256 -23 225 0 229
0 256 23 37 32 36 84 -1 112 -25 19 -43 20 -257 21 -220 0 -232 0 -255 -20z"/>
<path d="M2371 2373 c-34 -29 -37 -74 -8 -109 l25 -29 238 0 239 -1 28 27 c34
34 35 68 2 103 l-24 26 -239 0 c-214 0 -242 -2 -261 -17z"/>
<path d="M2401 1870 c-60 -15 -83 -89 -39 -130 12 -11 27 -20 32 -21 14 -1
624 -1 657 0 14 1 38 12 52 25 20 19 25 31 22 57 -3 18 -13 41 -23 52 -18 17
-41 19 -350 20 -182 1 -340 0 -351 -3z"/>
<path d="M2391 1348 c-45 -16 -55 -91 -18 -126 20 -18 35 -22 96 -22 63 0 75
3 96 25 14 13 25 33 25 44 0 32 -21 70 -44 78 -28 10 -131 10 -155 1z"/>
<path d="M2900 1348 c-10 -4 -26 -18 -36 -32 -20 -31 -13 -67 18 -96 21 -19
34 -20 464 -20 243 0 450 3 459 6 17 7 45 54 45 78 0 8 -11 27 -24 43 l-24 28
-441 0 c-243 0 -450 -3 -461 -7z"/>
<path d="M2373 820 c-29 -27 -37 -56 -23 -89 16 -39 44 -49 128 -47 87 3 112
20 112 77 0 58 -33 79 -124 79 -58 0 -76 -4 -93 -20z"/>
<path d="M2889 827 c-43 -33 -46 -88 -6 -123 23 -20 33 -20 469 -20 420 1 447
2 466 20 12 10 22 28 24 40 5 27 -17 73 -41 86 -30 15 -891 13 -912 -3z"/>
<path d="M4065 3235 c-16 -16 -25 -36 -26 -60 -1 -19 -2 -40 -3 -46 0 -6 -28
-20 -61 -30 -217 -68 -287 -353 -127 -517 68 -70 127 -94 237 -98 162 -7 219
-49 220 -164 0 -69 -29 -114 -92 -142 -110 -49 -216 -18 -274 80 -37 62 -96
66 -135 7 -25 -39 -11 -88 42 -145 43 -46 146 -110 177 -110 12 0 16 -10 15
-37 0 -45 16 -92 34 -98 45 -16 71 -13 94 10 13 13 24 30 25 37 4 43 7 74 8
81 0 4 9 7 19 7 10 0 41 12 70 26 204 101 242 368 75 521 -59 54 -116 74 -228
82 -117 8 -160 27 -188 81 -24 45 -19 135 8 173 30 41 100 71 165 71 77 -1
127 -27 165 -86 51 -80 119 -87 153 -16 32 68 -75 199 -197 241 -44 14 -44 15
-47 63 -6 84 -77 122 -129 69z"/>
</g>
</svg>
